<svg width="65" height="64" viewBox="0 0 65 64" fill="none" xmlns="http://www.w3.org/2000/svg">
<path fill-rule="evenodd" clip-rule="evenodd" d="M12.0141 5.69462L12.0141 5.66805C12.0141 2.53767 9.40392 0 6.18407 0C2.96421 0 0.354007 2.53767 0.354007 5.66805C0.354007 8.79843 2.96421 11.3361 6.18407 11.3361C7.23725 11.3361 8.22521 11.0646 9.07794 10.5897C9.42033 11.1548 9.94376 11.6185 10.6098 11.8877L38.6642 23.2245C38.8393 23.2952 39.0173 23.3497 39.1964 23.3886C40.6858 23.9594 42.3964 23.2675 43.0614 21.8036L47.3374 12.3916C48.0191 10.8909 47.344 9.14712 45.8295 8.49677C44.3149 7.84641 42.5345 8.53573 41.8527 10.0364L38.977 16.3664L13.156 5.93211C12.7827 5.78128 12.3965 5.70442 12.0141 5.69462ZM6.18407 8.53939C4.55295 8.53939 3.23066 7.25385 3.23066 5.66805C3.23066 4.08226 4.55295 2.79672 6.18407 2.79672C7.81519 2.79672 9.13747 4.08226 9.13747 5.66805C9.13747 7.25385 7.81519 8.53939 6.18407 8.53939ZM54.3709 9.6033C53.7153 8.68132 53.3337 7.56152 53.3399 6.35565C53.356 3.22531 55.9792 0.700331 59.199 0.715954C62.4188 0.731578 65.016 3.28189 64.9999 6.41223C64.9844 9.42459 62.5546 11.8764 59.5022 12.043C59.5072 12.4723 59.4233 12.9108 59.2401 13.3333L48.3821 38.3769L55.1662 41.3294C56.649 41.9748 57.3026 43.6889 56.6261 45.1581C55.9496 46.6273 54.1992 47.2952 52.7164 46.6499L42.9354 42.393C41.6202 41.8206 40.9573 40.4074 41.2963 39.0701C41.326 38.744 41.4077 38.4162 41.5458 38.0975L53.3323 10.9123C53.5651 10.3753 53.929 9.93182 54.3709 9.6033ZM56.2165 6.36961C56.2247 4.78383 57.5535 3.50472 59.1846 3.51264C60.8157 3.52055 62.1314 4.81249 62.1233 6.39827C62.1151 7.98404 60.7863 9.26315 59.1552 9.25524C57.5241 9.24732 56.2084 7.95538 56.2165 6.36961ZM58.6584 52.6639C57.4567 52.6612 56.3391 53.0121 55.4098 53.6159C55.1174 53.2646 54.7353 52.9776 54.2787 52.7919L25.6744 41.157C25.1624 40.9487 24.623 40.8947 24.1092 40.9732C23.0201 41.0421 21.999 41.6934 21.5181 42.7454L17.5085 51.5158C16.8232 53.015 17.4941 54.7602 19.0071 55.414C20.5201 56.0678 22.3022 55.3825 22.9876 53.8834L25.8788 47.559L51.9645 58.1694C52.2428 58.2826 52.5291 58.3502 52.815 58.3758C52.839 61.48 55.431 63.9928 58.6313 64C61.8512 64.0073 64.4674 61.4755 64.4749 58.3451C64.4824 55.2147 61.8783 52.6712 58.6584 52.6639ZM61.5983 58.3386C61.6021 56.7528 60.2828 55.4643 58.6517 55.4606C57.0206 55.4569 55.6953 56.7395 55.6915 58.3253C55.6877 59.9111 57.0069 61.1996 58.638 61.2033C60.2691 61.207 61.5945 59.9244 61.5983 58.3386ZM10.5775 54.6734C11.2332 55.5657 11.63 56.6522 11.6585 57.8311C11.7342 60.9607 9.18604 63.5573 5.96708 63.6308C2.74811 63.7044 0.0772969 61.227 0.00164197 58.0975C-0.0737505 54.9788 2.4565 52.3894 5.65964 52.2987C5.67618 51.9847 5.74393 51.6674 5.8677 51.3575L16.0609 25.8396L9.37851 23.1507C7.87739 22.5467 7.17378 20.8513 7.80695 19.3639C8.44013 17.8766 10.1703 17.1605 11.6714 17.7645L21.0032 21.5195C22.1814 21.9936 22.8683 23.1399 22.8032 24.3304C22.8259 24.7441 22.7604 25.1702 22.5955 25.5832L11.4569 53.4678C11.2633 53.9522 10.9561 54.3603 10.5775 54.6734ZM8.78268 57.8968C8.82101 59.4822 7.53016 60.7976 5.89949 60.8349C4.26882 60.8721 2.91583 59.6171 2.8775 58.0318C2.83918 56.4464 4.13003 55.131 5.7607 55.0938C7.39137 55.0565 8.74436 56.3115 8.78268 57.8968ZM6.07975 27.0374C6.50513 26.018 7.68294 25.5202 8.71047 25.9254L10.7792 26.7414C11.8067 27.1467 12.2949 28.3016 11.8695 29.321L7.27718 40.3259C6.8518 41.3453 5.67399 41.8431 4.64646 41.4378L2.57773 40.6219C1.5502 40.2166 1.06206 39.0617 1.48744 38.0423L6.07975 27.0374ZM23.2352 5.1148C22.7928 6.1269 23.2617 7.28929 24.2826 7.71108L35.7291 12.4403C36.7499 12.8621 37.9361 12.3836 38.3785 11.3715L39.2387 9.40377C39.6811 8.39167 39.2122 7.22927 38.1913 6.80749L26.7448 2.07822C25.724 1.65644 24.5378 2.13498 24.0954 3.14708L23.2352 5.1148ZM57.5277 24.2019C57.9731 23.1911 59.1608 22.716 60.1804 23.1406L62.1777 23.9724C63.1974 24.3971 63.663 25.5607 63.2176 26.5715L58.3284 37.6681C57.883 38.6789 56.6953 39.154 55.6757 38.7294L53.6784 37.8976C52.6587 37.473 52.1932 36.3093 52.6385 35.2985L57.5277 24.2019ZM41.7413 59.3665C42.2017 58.3625 41.7533 57.1925 40.7398 56.7532L29.6205 51.9343C28.607 51.495 27.4122 51.9529 26.9519 52.957L26.0098 55.0116C25.5494 56.0156 25.9978 57.1856 27.0113 57.6249L38.1306 62.4438C39.144 62.883 40.3388 62.4252 40.7992 61.4211L41.7413 59.3665Z" fill="white"/>
</svg>
